<?xml version="1.0" encoding="UTF-8" standalone="no"?>
<!-- Created with Inkscape (http://www.inkscape.org/) -->

<svg
   xmlns:dc="http://purl.org/dc/elements/1.1/"
   xmlns:cc="http://creativecommons.org/ns#"
   xmlns:rdf="http://www.w3.org/1999/02/22-rdf-syntax-ns#"
   xmlns:svg="http://www.w3.org/2000/svg"
   xmlns="http://www.w3.org/2000/svg"
   xmlns:sodipodi="http://sodipodi.sourceforge.net/DTD/sodipodi-0.dtd"
   xmlns:inkscape="http://www.inkscape.org/namespaces/inkscape"
   version="1.1"
   id="svg2"
   xml:space="preserve"
   width="120"
   height="77.333336"
   viewBox="0 0 120 77.333336"
   sodipodi:docname="email.svg"
   inkscape:version="0.92.4 (5da689c313, 2019-01-14)"><metadata
     id="metadata8"><rdf:RDF><cc:Work
         rdf:about=""><dc:format>image/svg+xml</dc:format><dc:type
           rdf:resource="http://purl.org/dc/dcmitype/StillImage" /><dc:title></dc:title></cc:Work></rdf:RDF></metadata><defs
     id="defs6"><clipPath
       clipPathUnits="userSpaceOnUse"
       id="clipPath18"><path
         d="M 0,58 H 90 V 0 H 0 Z"
         id="path16"
         inkscape:connector-curvature="0" /></clipPath></defs><sodipodi:namedview
     pagecolor="#ffffff"
     bordercolor="#666666"
     borderopacity="1"
     objecttolerance="10"
     gridtolerance="10"
     guidetolerance="10"
     inkscape:pageopacity="0"
     inkscape:pageshadow="2"
     inkscape:window-width="2560"
     inkscape:window-height="1017"
     id="namedview4"
     showgrid="false"
     inkscape:zoom="3.051724"
     inkscape:cx="57.378531"
     inkscape:cy="38.666668"
     inkscape:window-x="-8"
     inkscape:window-y="-8"
     inkscape:window-maximized="1"
     inkscape:current-layer="g20" /><g
     id="g10"
     inkscape:groupmode="layer"
     inkscape:label="Vector Smart Object1"
     transform="matrix(1.3333333,0,0,-1.3333333,0,77.333333)"><g
       id="g12"><g
         id="g14"
         clip-path="url(#clipPath18)"><g
           id="g20"
           transform="translate(88.0645,42.5718)"><path
             d="m 0,0 c -2.773,-1.447 -36.835,-19.259 -38.533,-20.144 -1.699,-0.887 -2.889,-1.002 -4.531,-1.002 -1.643,0 -2.832,0.115 -4.532,1.002 -1.698,0.885 -35.758,18.697 -38.533,20.144 -1.952,1.018 -1.935,-0.176 -1.935,-1.098 v -36.679 c 0,-2.096 2.792,-4.795 4.959,-4.795 h 80.082 c 2.167,0 4.959,2.699 4.959,4.795 V -1.098 C 1.936,-0.176 1.954,1.018 0,0 m -85.095,10 c 2.441,-1.312 36.241,-19.468 37.499,-20.144 1.259,-0.676 2.889,-1.002 4.532,-1.002 1.642,0 3.272,0.326 4.531,1.002 1.258,0.676 35.057,18.832 37.499,20.144 2.442,1.311 4.754,5.428 0.266,5.428 h -84.594 c -4.484,0 -2.175,-4.117 0.267,-5.428"
             style="fill:#f0d8d9;fill-opacity:1;fill-rule:nonzero;stroke:none"
             id="path22"
             inkscape:connector-curvature="0" /></g></g></g></g></svg>